<svg width="14" height="14" viewBox="0 0 14 14" fill="none" xmlns="http://www.w3.org/2000/svg">
<g clip-path="url(#clip0_7019_98518)">
<path fill-rule="evenodd" clip-rule="evenodd" d="M11.4192 3.6415C11.7121 3.34861 11.7121 2.87373 11.4192 2.58084C11.1263 2.28795 10.6514 2.28795 10.3585 2.58084L6.99994 5.9394L3.64138 2.58084C3.34849 2.28795 2.87361 2.28795 2.58072 2.58084C2.28783 2.87373 2.28783 3.34861 2.58072 3.6415L5.93928 7.00006L2.58072 10.3586C2.28783 10.6515 2.28783 11.1264 2.58072 11.4193C2.87361 11.7122 3.34849 11.7122 3.64138 11.4193L6.99994 8.06072L10.3585 11.4193C10.6514 11.7122 11.1263 11.7122 11.4192 11.4193C11.7121 11.1264 11.7121 10.6515 11.4192 10.3586L8.0606 7.00006L11.4192 3.6415Z" fill="currentColor"/>
</g>
<defs>
<clipPath id="clip0_7019_98518">
<rect width="14" height="14" fill="white"/>
</clipPath>
</defs>
</svg>


